<svg width="256" height="256" viewBox="0 0 256 256" fill="none" xmlns="http://www.w3.org/2000/svg">
  <rect width="256" height="256" rx="60" fill="#2563eb"/>
  <path d="M96 178C80.5 178 68.5 173.5 60 164.5C51.5 155.5 47.25 143 47.25 127C47.25 111 51.5 98.75 60 90.25C68.5 81.75 81.5 77.5 99 77.5C108.5 77.5 116.5 79 123 82L119 104C113.5 101 107.5 99.5 101 99.5C92.5 99.5 86.25 102 82.25 107C78.25 112 76.25 119 76.25 128C76.25 137 78.25 143.75 82.25 148.25C86.25 152.75 92.25 155 100.25 155C107.25 155 114 153.25 120.5 149.75L124.75 170.75C116.25 175.583 106.667 178 96 178ZM148 175V80H176V114H208.5V80H236.5V175H208.5V136.5H176V175H148Z" fill="white"/>
</svg>
